HIERARCHY
ROOT Hips
{
	OFFSET 0.000000 0.000000 0.000000
	CHANNELS 6 Xposition Yposition Zposition Zrotation Yrotation Xrotation 
	JOINT LHipJoint
	{
		OFFSET 0.000000 0.000000 0.000000
		CHANNELS 3 Zrotation Yrotation Xrotation
		JOINT LeftUpLeg
		{
			OFFSET 1.363060 -1.794630 0.839290
			CHANNELS 3 Zrotation Yrotation Xrotation
			JOINT LeftLeg
			{
				OFFSET 2.448110 -6.726130 0.000000
				CHANNELS 3 Zrotation Yrotation Xrotation
				JOINT LeftFoot
				{
					OFFSET 2.562200 -7.039590 0.000000
					CHANNELS 3 Zrotation Yrotation Xrotation
					JOINT LeftToeBase
					{
						OFFSET 0.157640 -0.433110 2.322550
						CHANNELS 3 Zrotation Yrotation Xrotation
						End Site
						{
							OFFSET 0.000000 0.000000 0.000000
						}
					}
				}
			}
		}
	}
	JOINT RHipJoint
	{
		OFFSET 0.000000 0.000000 0.000000
		CHANNELS 3 Zrotation Yrotation Xrotation
		JOINT RightUpLeg
		{
			OFFSET -1.305520 -1.794630 0.839290
			CHANNELS 3 Zrotation Yrotation Xrotation
			JOINT RightLeg
			{
				OFFSET -2.542530 -6.985550 0.000000
				CHANNELS 3 Zrotation Yrotation Xrotation
				JOINT RightFoot
				{
					OFFSET -2.568260 -7.056230 0.000000
					CHANNELS 3 Zrotation Yrotation Xrotation
					JOINT RightToeBase
					{
						OFFSET -0.164730 -0.452590 2.363150
						CHANNELS 3 Zrotation Yrotation Xrotation
						End Site
						{
							OFFSET 0.000000 0.000000 0.000000
						}
					}
				}
			}
		}
	}
	JOINT LowerBack
	{
		OFFSET 0.000000 0.000000 0.000000
		CHANNELS 3 Zrotation Yrotation Xrotation
		JOINT Spine
		{
			OFFSET 0.028270 2.035590 -0.193380
			CHANNELS 3 Zrotation Yrotation Xrotation
			JOINT Spine1
			{
				OFFSET 0.056720 2.048850 -0.042750
				CHANNELS 3 Zrotation Yrotation Xrotation
				JOINT Neck
				{
					OFFSET 0.000000 0.000000 0.000000
					CHANNELS 3 Zrotation Yrotation Xrotation
					JOINT Neck1
					{
						OFFSET -0.054170 1.746240 0.172020
						CHANNELS 3 Zrotation Yrotation Xrotation
						JOINT Head
						{
							OFFSET 0.104070 1.761360 -0.123970
							CHANNELS 3 Zrotation Yrotation Xrotation
							End Site
							{
								OFFSET 0.000000 0.000000 0.000000
							}
						}
					}
				}
				JOINT LeftShoulder
				{
					OFFSET 0.000000 0.000000 0.000000
					CHANNELS 3 Zrotation Yrotation Xrotation
					JOINT LeftArm
					{
						OFFSET 3.362410 1.200890 -0.311210
						CHANNELS 3 Zrotation Yrotation Xrotation
						JOINT LeftForeArm
						{
							OFFSET 4.983000 -0.000000 -0.000000
							CHANNELS 3 Zrotation Yrotation Xrotation
							JOINT LeftHand
							{
								OFFSET 3.483560 -0.000000 -0.000000
								CHANNELS 3 Zrotation Yrotation Xrotation
								JOINT LeftFingerBase
								{
									OFFSET 0.000000 0.000000 0.000000
									CHANNELS 3 Zrotation Yrotation Xrotation
									JOINT LeftHandIndex1
									{
										OFFSET 0.715260 -0.000000 -0.000000
										CHANNELS 3 Zrotation Yrotation Xrotation
										End Site
										{
											OFFSET 0.000000 0.000000 0.000000
										}
									}
								}
								JOINT LThumb
								{
									OFFSET 0.000000 0.000000 0.000000
									CHANNELS 3 Zrotation Yrotation Xrotation
									End Site
									{
										OFFSET 0.000000 0.000000 0.000000
									}
								}
							}
						}
					}
				}
				JOINT RightShoulder
				{
					OFFSET 0.000000 0.000000 0.000000
					CHANNELS 3 Zrotation Yrotation Xrotation
					JOINT RightArm
					{
						OFFSET -3.136600 1.374050 -0.404650
						CHANNELS 3 Zrotation Yrotation Xrotation
						JOINT RightForeArm
						{
							OFFSET -5.241900 -0.000000 -0.000000
							CHANNELS 3 Zrotation Yrotation Xrotation
							JOINT RightHand
							{
								OFFSET -3.444170 -0.000000 -0.000000
								CHANNELS 3 Zrotation Yrotation Xrotation
								JOINT RightFingerBase
								{
									OFFSET 0.000000 0.000000 0.000000
									CHANNELS 3 Zrotation Yrotation Xrotation
									JOINT RightHandIndex1
									{
										OFFSET -0.622530 -0.000000 -0.000000
										CHANNELS 3 Zrotation Yrotation Xrotation
										End Site
										{
											OFFSET 0.000000 0.000000 0.000000
										}
									}
								}
								JOINT RThumb
								{
									OFFSET 0.000000 0.000000 0.000000
									CHANNELS 3 Zrotation Yrotation Xrotation
									End Site
									{
										OFFSET 0.000000 0.000000 0.000000
									}
								}
							}
						}
					}
				}
			}
		}
	}
}
MOTION
Frames: 5
Frame Time: 0.008333
48.590750 17.653774 6.198356 -171.814531 17.844311 -173.494066 2.498260 -2.588121 -1.577897 -11.564220 9.115529 -16.897935 0.144666 8.541238 23.028461 0.037993 2.198939 -8.655727 0.002500 0.324900 0.892800 -5.703961 3.917867 -6.476575 26.878656 -6.991098 2.524073 -1.588793 -9.985734 22.246943 -0.499831 -1.485203 -16.729177 -0.137500 2.389800 -6.584200 -7.008953 1.236570 16.908317 -1.714978 2.117959 -0.211303 -5.587828 1.794843 4.291491 3.054023 9.880099 -18.994607 4.463526 13.150402 10.503100 -0.068300 6.547000 12.143400 5.897505 -1.351935 0.211682 -79.311708 -6.622852 32.567752 30.565203 -41.638769 -12.767252 -0.523371 0.534015 -1.695222 23.777739 -21.599977 -9.638700 -7.125000 0.000000 0.000000 -2.860500 5.981500 2.550100 -4.856411 2.465550 2.691743 77.398587 -27.398629 52.356904 -46.190941 53.471825 -19.751714 1.308428 -1.686489 -14.541161 -15.240184 -35.905902 9.113800 7.125000 0.000000 0.000000 20.541000 -63.604000 -9.467100 
48.604169 17.664838 6.097046 -173.104941 17.424404 -173.954232 2.545929 -2.399321 -1.278541 -16.139353 6.445545 -6.441484 -0.643300 7.099346 18.336808 0.341003 0.065638 -8.990930 0.051100 1.459300 4.013700 -5.695459 3.892558 -6.534902 25.685279 -6.589357 1.969491 -1.667144 -10.021493 22.433593 -0.501940 -1.096954 -16.504524 -0.213000 2.971600 -8.199600 -8.173746 1.124161 16.651878 -1.878932 1.946765 -0.185554 -5.547321 1.723531 4.433010 2.797331 9.798599 -18.887938 4.811988 13.123510 10.514830 0.157000 6.569400 12.026500 5.817811 -1.338855 0.201700 -78.765375 -7.738565 33.250124 31.459193 -42.330065 -13.373765 -0.529059 0.526129 -2.007583 23.887109 -21.461155 -9.629400 -7.125000 0.000000 0.000000 -2.774300 6.114600 2.465900 -4.903426 2.478132 2.714040 77.583862 -27.836783 51.848134 -45.499916 53.137283 -19.305816 1.305224 -1.700791 -14.056418 -14.767890 -36.269888 8.926100 7.125000 0.000000 0.000000 21.405500 -63.815900 -9.989700 
48.591569 17.686554 5.988872 -176.234643 17.347557 -174.781196 2.619824 -2.550928 -1.283736 -20.337630 7.425535 -6.599481 -0.794537 7.222703 18.092907 0.182592 1.318942 -9.003237 0.526100 -4.648200 -12.907800 -5.449752 4.108841 -6.580251 21.661858 -6.880749 1.053392 -1.880351 -10.033847 22.993127 -0.543348 0.392940 -16.347788 -0.199300 2.874900 -7.930800 -11.195648 1.053363 16.239520 -2.190281 1.720844 -0.221254 -5.146122 1.643717 4.570331 2.817849 9.779281 -19.054784 4.823795 13.158513 10.747834 0.151000 6.597600 12.217400 5.727186 -1.314059 0.170101 -79.153708 -9.425822 32.319433 31.166873 -42.083962 -13.176379 -0.505192 0.561693 -0.736177 23.682507 -22.303451 -9.883900 -7.125000 0.000000 0.000000 -3.005900 5.233400 2.723000 -4.937767 2.513495 2.712635 77.381065 -28.234490 51.598204 -44.933346 52.800124 -18.937807 1.310247 -1.696978 -13.628463 -13.857572 -36.550178 8.467300 7.125000 0.000000 0.000000 22.692400 -63.854700 -10.640900 
48.614925 17.688808 5.887562 -176.791276 16.880724 -175.212738 2.647426 -2.509851 -1.301213 -20.947725 5.997609 -4.886305 -0.919231 6.900851 17.137050 0.371332 -0.204016 -9.265014 0.071100 1.719700 4.731600 -5.434574 4.093211 -6.554290 21.262009 -6.448917 0.629643 -1.932186 -10.040917 23.085698 -0.554434 1.140916 -16.320205 -0.092200 1.958000 -5.389500 -11.661628 0.963822 16.101614 -2.282939 1.660983 -0.154829 -5.110876 1.631294 4.859106 2.218345 9.436858 -19.063734 5.304485 12.817449 10.623428 0.480400 6.461900 11.969000 5.644581 -1.268140 0.160242 -78.402427 -10.607278 33.610031 32.150368 -42.833674 -13.846523 -0.521442 0.546993 -1.691333 23.888233 -22.199553 -9.935300 -7.125000 0.000000 0.000000 -2.860800 5.312400 2.587000 -4.982063 2.528977 2.721565 77.346812 -28.604443 51.147065 -44.462841 52.560554 -18.626598 1.330919 -1.689978 -13.206560 -12.664242 -36.687119 7.817900 7.125000 0.000000 0.000000 24.127500 -63.693900 -11.261600 
48.641968 17.691881 5.794857 -177.195186 16.429727 -175.576036 2.684868 -2.489088 -1.311978 -21.522149 6.185375 -4.231567 -0.955128 6.835047 16.895724 0.348464 0.047780 -9.433717 0.001600 0.262100 0.720200 -5.462372 4.065604 -6.518140 21.182228 -5.718621 0.234516 -1.970086 -10.016867 23.064365 -0.549342 1.651691 -16.159131 -0.005900 0.494700 -1.359400 -12.225900 0.870016 16.005773 -2.296297 1.544823 -0.109504 -4.851683 1.556143 5.058429 2.143160 9.455454 -19.144937 5.390506 12.907159 10.761885 0.548000 6.509000 12.047600 5.640517 -1.256654 0.160935 -77.815764 -11.619240 34.542128 33.364517 -43.731967 -14.693366 -0.532474 0.532496 -2.437504 24.074079 -21.851772 -9.875700 -7.125000 0.000000 0.000000 -2.702100 5.655000 2.425500 -4.974356 2.526158 2.724201 77.087173 -28.908803 51.031723 -44.059305 52.317645 -18.365002 1.337378 -1.682753 -12.928815 -11.882269 -36.821879 7.397100 7.125000 0.000000 0.000000 25.121300 -63.631200 -11.717800 
